<mxfile host="app.diagrams.net" modified="2023-06-26T21:39:43.649Z" agent="Mozilla/5.0 (Macintosh; Intel Mac OS X 10_15_7) AppleWebKit/537.36 (KHTML, like Gecko) Chrome/114.0.0.0 Safari/537.36" etag="MUwkpfo28ri8a2plgeKa" version="21.5.0" type="device">
  <diagram id="9syix_5DXPfXCFVQ99Eq" name="Page-1">
    <mxGraphModel dx="1194" dy="591" grid="1" gridSize="20" guides="1" tooltips="1" connect="1" arrows="1" fold="1" page="1" pageScale="1" pageWidth="850" pageHeight="1100" math="0" shadow="0">
      <root>
        <mxCell id="0" />
        <mxCell id="1" parent="0" />
        <mxCell id="LZLJPl1nKefLJiJ5nClt-6" value="" style="rounded=0;whiteSpace=wrap;html=1;fillColor=none;dashed=1;strokeColor=#007FFF;" parent="1" vertex="1">
          <mxGeometry x="206" y="280" width="180" height="100" as="geometry" />
        </mxCell>
        <mxCell id="LZLJPl1nKefLJiJ5nClt-7" value="" style="triangle;whiteSpace=wrap;html=1;fillColor=#67AB9F;direction=north;" parent="1" vertex="1">
          <mxGeometry x="230" y="285" width="20" height="40" as="geometry" />
        </mxCell>
        <mxCell id="LZLJPl1nKefLJiJ5nClt-8" value="" style="triangle;whiteSpace=wrap;html=1;fillColor=#67AB9F;direction=north;" parent="1" vertex="1">
          <mxGeometry x="250" y="307.5" width="20" height="40" as="geometry" />
        </mxCell>
        <mxCell id="LZLJPl1nKefLJiJ5nClt-9" value="" style="triangle;whiteSpace=wrap;html=1;fillColor=#67AB9F;direction=north;" parent="1" vertex="1">
          <mxGeometry x="290" y="285" width="20" height="40" as="geometry" />
        </mxCell>
        <mxCell id="LZLJPl1nKefLJiJ5nClt-11" value="" style="shape=hexagon;perimeter=hexagonPerimeter2;whiteSpace=wrap;html=1;fixedSize=1;fillColor=#CC99FF;" parent="1" vertex="1">
          <mxGeometry x="260" y="285" width="20" height="45" as="geometry" />
        </mxCell>
        <mxCell id="LZLJPl1nKefLJiJ5nClt-12" value="" style="shape=hexagon;perimeter=hexagonPerimeter2;whiteSpace=wrap;html=1;fixedSize=1;fillColor=#CC99FF;" parent="1" vertex="1">
          <mxGeometry x="217" y="309" width="20" height="45" as="geometry" />
        </mxCell>
        <mxCell id="LZLJPl1nKefLJiJ5nClt-13" value="" style="shape=hexagon;perimeter=hexagonPerimeter2;whiteSpace=wrap;html=1;fixedSize=1;fillColor=#CC99FF;size=10;" parent="1" vertex="1">
          <mxGeometry x="290" y="310" width="20" height="45" as="geometry" />
        </mxCell>
        <mxCell id="LZLJPl1nKefLJiJ5nClt-15" value="" style="rounded=0;whiteSpace=wrap;html=1;fillColor=#CCE5FF;direction=south;" parent="1" vertex="1">
          <mxGeometry x="277" y="320" width="15.56" height="35" as="geometry" />
        </mxCell>
        <mxCell id="LZLJPl1nKefLJiJ5nClt-16" value="" style="rounded=0;whiteSpace=wrap;html=1;fillColor=#CCE5FF;direction=south;" parent="1" vertex="1">
          <mxGeometry x="312" y="285" width="20" height="45" as="geometry" />
        </mxCell>
        <mxCell id="LZLJPl1nKefLJiJ5nClt-38" value="" style="rounded=0;whiteSpace=wrap;html=1;fillColor=#CCE5FF;direction=south;" parent="1" vertex="1">
          <mxGeometry x="327" y="305" width="20" height="45" as="geometry" />
        </mxCell>
        <mxCell id="xmbNHh2ingOPUlVKqmHi-2" value="" style="rounded=1;whiteSpace=wrap;html=1;" vertex="1" parent="1">
          <mxGeometry x="80" y="80" width="440" height="200" as="geometry" />
        </mxCell>
        <mxCell id="LZLJPl1nKefLJiJ5nClt-1" value="&lt;font size=&quot;1&quot; style=&quot;&quot;&gt;&lt;b style=&quot;font-size: 22px;&quot;&gt;Profiler&lt;/b&gt;&lt;/font&gt;" style="rounded=0;whiteSpace=wrap;html=1;fillColor=none;" parent="1" vertex="1">
          <mxGeometry x="95" y="140" width="120" height="70" as="geometry" />
        </mxCell>
        <mxCell id="LZLJPl1nKefLJiJ5nClt-4" value="&lt;font style=&quot;font-size: 22px;&quot;&gt;&lt;b&gt;MO-RL Scheduler&lt;/b&gt;&lt;/font&gt;" style="rounded=0;whiteSpace=wrap;html=1;fillColor=none;" parent="1" vertex="1">
          <mxGeometry x="222" y="140" width="120" height="70" as="geometry" />
        </mxCell>
        <mxCell id="LZLJPl1nKefLJiJ5nClt-5" value="&lt;b style=&quot;font-size: 22px;&quot;&gt;Token&lt;br&gt;Manager&lt;/b&gt;" style="rounded=0;whiteSpace=wrap;html=1;fillColor=none;" parent="1" vertex="1">
          <mxGeometry x="350" y="140" width="120" height="70" as="geometry" />
        </mxCell>
        <mxCell id="LZLJPl1nKefLJiJ5nClt-47" value="" style="endArrow=block;html=1;rounded=0;strokeWidth=4;endFill=1;exitX=0.27;exitY=1;exitDx=0;exitDy=0;exitPerimeter=0;" parent="1" edge="1">
          <mxGeometry width="50" height="50" relative="1" as="geometry">
            <mxPoint x="210.79999999999995" y="280" as="sourcePoint" />
            <mxPoint x="212" y="212" as="targetPoint" />
          </mxGeometry>
        </mxCell>
        <mxCell id="LZLJPl1nKefLJiJ5nClt-51" value="" style="endArrow=block;html=1;rounded=0;strokeWidth=4;endFill=1;exitX=0.846;exitY=0.013;exitDx=0;exitDy=0;exitPerimeter=0;" parent="1" edge="1">
          <mxGeometry width="50" height="50" relative="1" as="geometry">
            <mxPoint x="197.00000000000003" y="148.03999999999996" as="sourcePoint" />
            <mxPoint x="248" y="148" as="targetPoint" />
          </mxGeometry>
        </mxCell>
        <mxCell id="LZLJPl1nKefLJiJ5nClt-55" value="" style="endArrow=block;html=1;rounded=0;strokeWidth=4;endFill=1;exitX=0.846;exitY=0.013;exitDx=0;exitDy=0;exitPerimeter=0;" parent="1" edge="1">
          <mxGeometry width="50" height="50" relative="1" as="geometry">
            <mxPoint x="369" y="148" as="sourcePoint" />
            <mxPoint x="318" y="148.03999999999996" as="targetPoint" />
          </mxGeometry>
        </mxCell>
        <mxCell id="LZLJPl1nKefLJiJ5nClt-56" value="&lt;font style=&quot;font-size: 18px;&quot;&gt;Token bids&lt;/font&gt;" style="text;html=1;strokeColor=none;fillColor=none;align=center;verticalAlign=middle;whiteSpace=wrap;rounded=0;dashed=1;" parent="1" vertex="1">
          <mxGeometry x="318" y="113" width="100" height="30" as="geometry" />
        </mxCell>
        <mxCell id="LZLJPl1nKefLJiJ5nClt-58" value="" style="endArrow=block;html=1;rounded=0;strokeWidth=4;endFill=1;exitX=0.846;exitY=0.013;exitDx=0;exitDy=0;exitPerimeter=0;" parent="1" edge="1">
          <mxGeometry width="50" height="50" relative="1" as="geometry">
            <mxPoint x="375" y="279.03999999999996" as="sourcePoint" />
            <mxPoint x="375.02" y="210" as="targetPoint" />
          </mxGeometry>
        </mxCell>
        <mxCell id="LZLJPl1nKefLJiJ5nClt-59" value="" style="endArrow=block;html=1;rounded=0;strokeWidth=4;endFill=1;exitX=0.846;exitY=0.013;exitDx=0;exitDy=0;exitPerimeter=0;" parent="1" edge="1">
          <mxGeometry width="50" height="50" relative="1" as="geometry">
            <mxPoint x="362.02" y="210.96" as="sourcePoint" />
            <mxPoint x="362" y="279.99999999999994" as="targetPoint" />
            <Array as="points">
              <mxPoint x="362" y="240" />
            </Array>
          </mxGeometry>
        </mxCell>
        <mxCell id="LZLJPl1nKefLJiJ5nClt-60" value="&lt;font size=&quot;1&quot; style=&quot;&quot;&gt;&lt;span style=&quot;font-size: 18px;&quot;&gt;Pay Provider&lt;/span&gt;&lt;/font&gt;" style="text;html=1;strokeColor=none;fillColor=none;align=center;verticalAlign=middle;whiteSpace=wrap;rounded=0;dashed=1;" parent="1" vertex="1">
          <mxGeometry x="371" y="206" width="127" height="30" as="geometry" />
        </mxCell>
        <mxCell id="LZLJPl1nKefLJiJ5nClt-62" value="&lt;font style=&quot;font-size: 18px;&quot;&gt;Consumer&lt;br&gt;bids&lt;br&gt;&lt;/font&gt;" style="text;html=1;strokeColor=none;fillColor=none;align=center;verticalAlign=middle;whiteSpace=wrap;rounded=0;dashed=1;" parent="1" vertex="1">
          <mxGeometry x="373" y="245" width="100" height="25" as="geometry" />
        </mxCell>
        <mxCell id="LZLJPl1nKefLJiJ5nClt-64" value="&lt;font style=&quot;font-size: 18px;&quot;&gt;Marginal Contributions&lt;/font&gt;" style="text;html=1;strokeColor=none;fillColor=none;align=center;verticalAlign=middle;whiteSpace=wrap;rounded=0;dashed=1;" parent="1" vertex="1">
          <mxGeometry x="118" y="113" width="200" height="30" as="geometry" />
        </mxCell>
        <mxCell id="xmbNHh2ingOPUlVKqmHi-3" value="&lt;span style=&quot;font-size: 22px;&quot;&gt;&lt;b&gt;Coordinator&lt;/b&gt;&lt;/span&gt;" style="text;html=1;strokeColor=none;fillColor=none;align=center;verticalAlign=middle;whiteSpace=wrap;rounded=0;" vertex="1" parent="1">
          <mxGeometry x="374" y="83" width="140" height="30" as="geometry" />
        </mxCell>
        <mxCell id="xmbNHh2ingOPUlVKqmHi-4" value="&lt;span style=&quot;font-size: 22px;&quot;&gt;&lt;b&gt;Organizations&lt;/b&gt;&lt;/span&gt;" style="text;html=1;strokeColor=none;fillColor=none;align=center;verticalAlign=middle;whiteSpace=wrap;rounded=0;" vertex="1" parent="1">
          <mxGeometry x="228" y="351" width="140" height="30" as="geometry" />
        </mxCell>
        <mxCell id="xmbNHh2ingOPUlVKqmHi-6" value="&lt;font style=&quot;font-size: 18px;&quot;&gt;Accuracy/loss&lt;br&gt;Latency&lt;br&gt;Privacy level&lt;br&gt;&lt;/font&gt;" style="text;html=1;strokeColor=none;fillColor=none;align=center;verticalAlign=middle;whiteSpace=wrap;rounded=0;dashed=1;" vertex="1" parent="1">
          <mxGeometry x="99" y="231" width="100" height="25" as="geometry" />
        </mxCell>
        <mxCell id="xmbNHh2ingOPUlVKqmHi-8" value="&lt;font style=&quot;font-size: 18px;&quot;&gt;Selected clients train&lt;br&gt;&lt;/font&gt;" style="text;html=1;strokeColor=none;fillColor=none;align=center;verticalAlign=middle;whiteSpace=wrap;rounded=0;dashed=1;" vertex="1" parent="1">
          <mxGeometry x="217" y="231" width="100" height="25" as="geometry" />
        </mxCell>
        <mxCell id="xmbNHh2ingOPUlVKqmHi-9" value="" style="endArrow=block;html=1;rounded=0;strokeWidth=4;endFill=1;exitX=0.846;exitY=0.013;exitDx=0;exitDy=0;exitPerimeter=0;" edge="1" parent="1">
          <mxGeometry width="50" height="50" relative="1" as="geometry">
            <mxPoint x="322.02" y="210.96" as="sourcePoint" />
            <mxPoint x="322" y="279.99999999999994" as="targetPoint" />
            <Array as="points">
              <mxPoint x="322" y="240" />
            </Array>
          </mxGeometry>
        </mxCell>
        <mxCell id="xmbNHh2ingOPUlVKqmHi-10" value="" style="rounded=0;whiteSpace=wrap;html=1;fillColor=#CCE5FF;direction=south;" vertex="1" parent="1">
          <mxGeometry x="354" y="287.5" width="20" height="45" as="geometry" />
        </mxCell>
        <mxCell id="xmbNHh2ingOPUlVKqmHi-11" value="" style="triangle;whiteSpace=wrap;html=1;fillColor=#67AB9F;direction=north;" vertex="1" parent="1">
          <mxGeometry x="342" y="312.5" width="20" height="40" as="geometry" />
        </mxCell>
        <mxCell id="xmbNHh2ingOPUlVKqmHi-12" value="" style="shape=hexagon;perimeter=hexagonPerimeter2;whiteSpace=wrap;html=1;fixedSize=1;fillColor=#CC99FF;size=50;" vertex="1" parent="1">
          <mxGeometry x="358" y="312.5" width="20" height="45" as="geometry" />
        </mxCell>
      </root>
    </mxGraphModel>
  </diagram>
</mxfile>
